<svg width="22" height="25" viewBox="0 0 22 25" fill="none" xmlns="http://www.w3.org/2000/svg">
<path d="M21.2444 17.4609C20.3388 16.4877 18.6442 15.0238 18.6442 10.2285C18.6442 6.58633 16.0905 3.6707 12.647 2.95539V1.97852C12.647 1.15023 11.9758 0.478516 11.148 0.478516C10.3202 0.478516 9.64892 1.15023 9.64892 1.97852V2.95539C6.20548 3.6707 3.65173 6.58633 3.65173 10.2285C3.65173 15.0238 1.9572 16.4877 1.05158 17.4609C0.770325 17.7632 0.645638 18.1246 0.647982 18.4785C0.653138 19.2473 1.25642 19.9785 2.15267 19.9785H20.1433C21.0395 19.9785 21.6433 19.2473 21.648 18.4785C21.6503 18.1246 21.5256 17.7627 21.2444 17.4609ZM3.81345 17.7285C4.80814 16.4174 5.89564 14.2443 5.90079 10.2557C5.90079 10.2463 5.89798 10.2379 5.89798 10.2285C5.89798 7.32883 8.24829 4.97852 11.148 4.97852C14.0477 4.97852 16.398 7.32883 16.398 10.2285C16.398 10.2379 16.3952 10.2463 16.3952 10.2557C16.4003 14.2448 17.4878 16.4179 18.4825 17.7285H3.81345ZM11.148 24.4785C12.8036 24.4785 14.1466 23.1355 14.1466 21.4785H8.14939C8.14939 23.1355 9.49236 24.4785 11.148 24.4785Z" fill="white"/>
</svg>
