<svg width="100" height="88" viewBox="0 0 100 88" fill="none" xmlns="http://www.w3.org/2000/svg">
<path d="M74.5141 19.3875C70.1563 7.82186 60.7876 0.496765 46.6361 0.496765C28.6298 0.496765 16.0314 13.8671 14.9487 31.3108C6.26733 34.0874 0.000244141 42.9436 0.000244141 52.9749C0.000244141 65.2546 9.65337 75.628 21.0767 75.628H30.1048C31.8298 75.628 33.2298 74.228 33.2298 72.503C33.2298 70.7765 31.8298 69.378 30.1048 69.378H21.0767C13.0392 69.378 6.15171 61.8671 6.15171 52.9749C6.15171 45.1171 11.6611 38.028 18.572 36.8405L21.408 36.3515L21.1564 33.4874L21.133 33.4515C21.133 18.2296 31.1501 6.74833 46.6361 6.74833C59.0486 6.74833 66.0221 12.864 69.2471 23.2952L69.9158 25.4468L72.1673 25.4952C83.7767 25.739 93.9548 35.1578 93.9548 46.8595C93.9548 57.5094 86.8969 69.3781 76.2111 69.3781H69.0705C67.3455 69.3781 65.9455 70.7781 65.9455 72.5031C65.9455 74.2297 67.3455 75.6281 69.0705 75.6281L76.1876 75.6188C91.8126 75.2063 99.9517 60.2799 99.9517 46.8596C99.9517 32.4346 88.647 20.908 74.5142 19.3877L74.5141 19.3875ZM52.3423 44.2872C52.3251 44.2684 52.3188 44.2528 52.3078 44.2372L51.5172 43.4106C51.0844 42.9528 50.5079 42.7263 49.9313 42.7294C49.3546 42.7247 48.7812 42.9528 48.3406 43.4105L47.55 44.2371C47.5344 44.2527 47.5312 44.2716 47.5172 44.2872L36.2375 56.7622C35.3641 57.6747 35.3641 59.1513 36.2375 60.0669L37.025 60.6012C37.8986 61.5137 39.3141 61.2183 40.186 60.3058L46.8376 52.8903V84.3778C46.8376 86.1028 48.2376 87.5028 49.9626 87.5028C51.6876 87.5028 53.0876 86.1028 53.0876 84.3778V52.9199L59.9595 60.5011C60.833 61.4136 62.2455 61.709 63.1173 60.7965L63.9048 60.2621C64.7784 59.3465 64.7784 57.8699 63.9048 56.9574L52.3423 44.2872Z" fill="#0095FF"/>
</svg>