<svg width="40" height="40" viewBox="0 0 40 40" fill="none" xmlns="http://www.w3.org/2000/svg">
<path fill-rule="evenodd" clip-rule="evenodd" d="M7.5 5C7.5 4.33696 7.76339 3.70107 8.23223 3.23223C8.70107 2.76339 9.33696 2.5 10 2.5H25C25.221 2.5 25.433 2.5878 25.5893 2.74408C25.7455 2.90036 25.8333 3.11232 25.8333 3.33333C25.8333 3.55435 25.7455 3.76631 25.5893 3.92259C25.433 4.07887 25.221 4.16667 25 4.16667H10C9.77899 4.16667 9.56702 4.25446 9.41074 4.41074C9.25446 4.56702 9.16667 4.77899 9.16667 5V20C9.16667 20.221 9.07887 20.433 8.92259 20.5893C8.76631 20.7455 8.55435 20.8333 8.33333 20.8333C8.11232 20.8333 7.90036 20.7455 7.74408 20.5893C7.5878 20.433 7.5 20.221 7.5 20V5ZM35 12.5C35.221 12.5 35.433 12.5878 35.5893 12.7441C35.7455 12.9004 35.8333 13.1123 35.8333 13.3333V26.6667C35.8333 26.8877 35.7455 27.0996 35.5893 27.2559C35.433 27.4122 35.221 27.5 35 27.5C34.779 27.5 34.567 27.4122 34.4107 27.2559C34.2545 27.0996 34.1667 26.8877 34.1667 26.6667V13.3333C34.1667 13.1123 34.2545 12.9004 34.4107 12.7441C34.567 12.5878 34.779 12.5 35 12.5ZM35 30.8333C35.221 30.8333 35.433 30.9211 35.5893 31.0774C35.7455 31.2337 35.8333 31.4457 35.8333 31.6667V35C35.8333 35.663 35.5699 36.2989 35.1011 36.7678C34.6323 37.2366 33.9964 37.5 33.3333 37.5H11.6667C11.4457 37.5 11.2337 37.4122 11.0774 37.2559C10.9211 37.0996 10.8333 36.8877 10.8333 36.6667C10.8333 36.4457 10.9211 36.2337 11.0774 36.0774C11.2337 35.9211 11.4457 35.8333 11.6667 35.8333H33.3333C33.5543 35.8333 33.7663 35.7455 33.9226 35.5893C34.0789 35.433 34.1667 35.221 34.1667 35V31.6667C34.1667 31.4457 34.2545 31.2337 34.4107 31.0774C34.567 30.9211 34.779 30.8333 35 30.8333Z" fill="#FFA621"/>
<path fill-rule="evenodd" clip-rule="evenodd" d="M24.6818 2.56343C24.834 2.50024 25.0016 2.48361 25.1632 2.51565C25.3249 2.54769 25.4735 2.62696 25.5901 2.74343L35.5901 12.7434C35.707 12.86 35.7866 13.0086 35.8188 13.1704C35.8511 13.3323 35.8346 13.5001 35.7714 13.6525C35.7082 13.805 35.6012 13.9352 35.4639 14.0268C35.3265 14.1183 35.1651 14.1671 35.0001 14.1668H26.6668C26.0037 14.1668 25.3678 13.9034 24.899 13.4345C24.4302 12.9657 24.1668 12.3298 24.1668 11.6668V3.33343C24.1668 3.16853 24.2157 3.00735 24.3074 2.87028C24.3991 2.73321 24.5294 2.62642 24.6818 2.56343ZM25.8334 5.34676V11.6668C25.8334 11.8878 25.9212 12.0997 26.0775 12.256C26.2338 12.4123 26.4458 12.5001 26.6668 12.5001H32.9884L25.8334 5.3451V5.34676ZM11.6668 26.6668C11.6668 26.0037 11.9302 25.3678 12.399 24.899C12.8678 24.4302 13.5037 24.1668 14.1668 24.1668H17.5001C17.7211 24.1668 17.9331 24.2546 18.0894 24.4108C18.2456 24.5671 18.3334 24.7791 18.3334 25.0001C18.3334 25.2211 18.2456 25.4331 18.0894 25.5894C17.9331 25.7456 17.7211 25.8334 17.5001 25.8334H14.1668C13.9458 25.8334 13.7338 25.9212 13.5775 26.0775C13.4212 26.2338 13.3334 26.4457 13.3334 26.6668C13.3334 26.8878 13.4212 27.0997 13.5775 27.256C13.7338 27.4123 13.9458 27.5001 14.1668 27.5001H15.8334C16.4965 27.5001 17.1324 27.7635 17.6012 28.2323C18.07 28.7012 18.3334 29.3371 18.3334 30.0001C18.3334 30.6631 18.07 31.299 17.6012 31.7679C17.1324 32.2367 16.4965 32.5001 15.8334 32.5001H12.5001C12.2791 32.5001 12.0671 32.4123 11.9109 32.256C11.7546 32.0997 11.6668 31.8878 11.6668 31.6668C11.6668 31.4457 11.7546 31.2338 11.9109 31.0775C12.0671 30.9212 12.2791 30.8334 12.5001 30.8334H15.8334C16.0545 30.8334 16.2664 30.7456 16.4227 30.5894C16.579 30.4331 16.6668 30.2211 16.6668 30.0001C16.6668 29.7791 16.579 29.5671 16.4227 29.4108C16.2664 29.2546 16.0545 29.1668 15.8334 29.1668H14.1668C13.5037 29.1668 12.8678 28.9034 12.399 28.4345C11.9302 27.9657 11.6668 27.3298 11.6668 26.6668ZM21.3751 24.2201C21.582 24.1429 21.811 24.151 22.012 24.2425C22.2129 24.3341 22.3693 24.5017 22.4468 24.7084L24.1668 29.2934L25.8868 24.7068C25.9646 24.4999 26.1214 24.3324 26.3226 24.2411C26.5239 24.1499 26.7532 24.1423 26.9601 24.2201C27.167 24.2979 27.3345 24.4547 27.4257 24.656C27.517 24.8573 27.5246 25.0866 27.4468 25.2934L24.9468 31.9601C24.8871 32.1188 24.7805 32.2554 24.6411 32.3519C24.5018 32.4484 24.3363 32.5001 24.1668 32.5001C23.9973 32.5001 23.8318 32.4484 23.6924 32.3519C23.5531 32.2554 23.4464 32.1188 23.3868 31.9601L20.8868 25.2934C20.8483 25.1909 20.8304 25.0818 20.8341 24.9723C20.8378 24.8629 20.8631 24.7552 20.9085 24.6555C20.9538 24.5559 21.0184 24.4661 21.0984 24.3914C21.1785 24.3167 21.2725 24.2585 21.3751 24.2201ZM5.87844 27.1434C5.83511 27.4784 5.83344 27.8601 5.83344 28.3334C5.83344 28.8068 5.83344 29.1884 5.87844 29.5234C5.92177 29.8501 5.99678 30.0651 6.10178 30.2168C6.27844 30.4718 6.74511 30.8334 8.33344 30.8334C8.55446 30.8334 8.76642 30.9212 8.9227 31.0775C9.07898 31.2338 9.16677 31.4457 9.16677 31.6668C9.16677 31.8878 9.07898 32.0997 8.9227 32.256C8.76642 32.4123 8.55446 32.5001 8.33344 32.5001C6.58844 32.5001 5.38844 32.1168 4.73178 31.1634C4.45104 30.7359 4.27726 30.2472 4.22511 29.7384C4.17644 29.2812 4.15696 28.8214 4.16678 28.3618V28.3051C4.16678 27.8651 4.16678 27.3801 4.22511 26.9284C4.28678 26.4584 4.42011 25.9534 4.73178 25.5034C5.38844 24.5501 6.58844 24.1668 8.33344 24.1668C8.55446 24.1668 8.76642 24.2546 8.9227 24.4108C9.07898 24.5671 9.16677 24.7791 9.16677 25.0001C9.16677 25.2211 9.07898 25.4331 8.9227 25.5894C8.76642 25.7456 8.55446 25.8334 8.33344 25.8334C6.74511 25.8334 6.27844 26.1951 6.10178 26.4501C5.99678 26.6018 5.92177 26.8168 5.87844 27.1434Z" fill="#FFA621"/>
</svg>
