<svg width="24" height="24" viewBox="0 0 24 24" fill="none" xmlns="http://www.w3.org/2000/svg">
<path d="M12 0C5.373 0 0 5.373 0 12C0 18.627 5.373 24 12 24C18.627 24 24 18.627 24 12C24 5.373 18.627 0 12 0ZM17.559 8.6805L11.811 17.466C11.8095 17.4675 11.8065 17.469 11.8065 17.4705C11.7765 17.5155 11.76 17.5665 11.7225 17.6085C11.67 17.6655 11.6025 17.6955 11.5425 17.739C11.5275 17.7495 11.5125 17.7615 11.496 17.772C11.403 17.8305 11.307 17.8695 11.202 17.895C11.1675 17.904 11.136 17.913 11.1 17.919C11.0165 17.9305 10.9318 17.9315 10.848 17.922C10.7888 17.9183 10.7301 17.9092 10.6725 17.895C10.6131 17.8771 10.5554 17.854 10.5 17.826C10.452 17.8035 10.401 17.7975 10.356 17.769C10.323 17.748 10.305 17.715 10.2765 17.6895C10.2645 17.679 10.2495 17.676 10.2375 17.6655L6.891 14.571C6.69264 14.3805 6.57692 14.1198 6.56871 13.845C6.5605 13.5701 6.66046 13.303 6.8471 13.101C7.03374 12.899 7.29217 12.7783 7.56684 12.7649C7.84151 12.7514 8.1105 12.8463 8.316 13.029L10.7385 15.27L15.801 7.5315C15.9534 7.29837 16.1921 7.13532 16.4647 7.07822C16.7373 7.02112 17.0214 7.07463 17.2545 7.227C17.4876 7.37937 17.6507 7.6181 17.7078 7.89069C17.7649 8.16327 17.7114 8.44738 17.559 8.6805Z" fill="#59D30C"/>
</svg>
