<svg width="40" height="40" viewBox="0 0 40 40" fill="none" xmlns="http://www.w3.org/2000/svg">
<g clip-path="url(#clip0_53_1030)">
<path d="M24.7801 39.9651C24.5746 39.9637 24.377 39.8866 24.225 39.7484C24.0729 39.6102 23.9773 39.4208 23.9565 39.2164C23.9356 39.012 23.9909 38.8072 24.1119 38.6411C24.2328 38.4751 24.4108 38.3596 24.6117 38.3167L35.8317 35.9851C35.2117 31.7717 32.2751 11.8017 31.8317 8.82339C31.2267 8.78339 30.1051 8.70172 29.1367 8.63006C28.9639 8.61692 28.7995 8.54989 28.6667 8.43839L25.7234 6.00006C25.6342 5.9319 25.5597 5.84643 25.5044 5.74878C25.4491 5.65113 25.414 5.54331 25.4014 5.43178C25.3888 5.32026 25.3988 5.20733 25.4309 5.09978C25.463 4.99223 25.5164 4.89226 25.5881 4.80588C25.6598 4.7195 25.7481 4.64849 25.8479 4.5971C25.9477 4.54572 26.0568 4.51502 26.1688 4.50685C26.2807 4.49868 26.3932 4.5132 26.4993 4.54956C26.6055 4.58591 26.7033 4.64333 26.7867 4.71839L29.5267 6.98672C30.2251 7.03672 32.0751 7.17339 32.2801 7.18006C32.8351 7.18006 33.3317 7.61339 33.4234 8.18672C33.4551 8.36172 36.9051 31.8184 37.5967 36.5167C37.6283 36.727 37.578 36.9415 37.4561 37.1158C37.3343 37.2901 37.1501 37.4109 36.9417 37.4534L24.9517 39.9451C24.8957 39.9598 24.8379 39.9665 24.7801 39.9651ZM32.2417 8.84839H32.2634H32.2417Z" fill="#F32C97"/>
<path d="M24.7816 40.0001C24.7296 40.0001 24.6777 39.995 24.6266 39.9851L3.07495 35.9184C2.86616 35.8789 2.68035 35.7612 2.55551 35.5893C2.43066 35.4173 2.3762 35.2042 2.40328 34.9934C2.51661 34.1051 5.19495 13.2451 5.31495 12.5034C5.47495 11.1834 5.72828 10.8918 7.11328 10.4534V10.4551C8.14495 10.1184 23.8149 5.19844 25.9033 4.61677L25.8983 4.59677C26.2016 4.49344 26.6333 4.55177 26.8566 4.78344C26.9342 4.86463 26.9945 4.96067 27.0341 5.06578C27.0736 5.1709 27.0915 5.28291 27.0866 5.3951L25.6133 39.2018C25.6085 39.3212 25.5778 39.4382 25.5235 39.5447C25.4691 39.6511 25.3923 39.7445 25.2983 39.8184C25.1519 39.9363 24.9695 40.0004 24.7816 40.0001ZM4.15661 34.4251L23.9899 38.1684L25.3716 6.5001C19.451 8.33997 13.5326 10.1872 7.61661 12.0418C7.39661 12.1118 7.06661 12.2151 6.98828 12.2684C7.02161 12.2684 6.98661 12.5618 6.96495 12.7368C6.87161 13.3218 5.14161 26.7468 4.15661 34.4251ZM7.36495 11.2468H7.38161H7.36495Z" fill="#F32C97"/>
<path d="M14.3617 33.3334C10.5467 33.3334 8.59501 30.9184 8.51335 30.815C8.42983 30.7097 8.37315 30.5856 8.34818 30.4535C8.32321 30.3214 8.33071 30.1852 8.37001 30.0567L9.31835 26.9184C9.35783 26.7843 9.4305 26.6624 9.52964 26.564C9.62878 26.4655 9.75117 26.3937 9.88547 26.3551C10.0198 26.3165 10.1616 26.3125 10.2979 26.3434C10.4342 26.3742 10.5604 26.439 10.665 26.5317C11.0817 26.8934 12.485 27.9284 13.4633 27.9284C14.045 27.9284 14.06 27.365 14.06 27.36C14.06 26.715 13.595 26.2984 12.7733 25.615C11.6717 24.7 10.165 23.4484 10.165 20.805C10.1333 18.8 10.8583 16.9334 12.2067 15.5667C13.6467 14.105 15.6767 13.3334 18.0817 13.3334C20.0983 13.3334 21.1483 13.925 21.2617 13.9934C21.4257 14.0912 21.5512 14.2425 21.617 14.4218C21.6828 14.6011 21.6851 14.7976 21.6233 14.9784L20.2367 19.0617C20.201 19.1658 20.1451 19.2618 20.0722 19.3442C19.9992 19.4266 19.9107 19.4937 19.8117 19.5417L19.7817 19.5567C19.6635 19.6146 19.5333 19.6436 19.4017 19.6413C19.2702 19.639 19.1411 19.6054 19.025 19.5434C19.015 19.5384 17.9883 19.0034 16.8133 19.0034C15.44 19.0034 15.44 19.645 15.44 19.8867C15.44 20.2 16.1317 20.72 16.74 21.1767C18.1983 22.2734 20.195 23.775 20.195 26.845C20.195 30.665 17.7967 33.3334 14.3617 33.3334ZM10.1033 30.0767C10.6717 30.6084 12.085 31.6667 14.3617 31.6667C16.8533 31.6667 18.5283 29.73 18.5283 26.845C18.5283 24.605 17.0467 23.4917 15.7383 22.5084C14.7283 21.7484 13.7733 21.03 13.7733 19.885C13.7733 18.6517 14.5717 17.335 16.8133 17.335C17.6383 17.335 18.39 17.52 18.935 17.7067L19.7867 15.2017C19.2293 15.062 18.6563 14.9942 18.0817 15C16.1333 15 14.5133 15.6 13.3933 16.735C12.3617 17.7834 11.8067 19.225 11.83 20.795C11.83 22.6684 12.805 23.4784 13.8367 24.3367C14.7217 25.07 15.725 25.9034 15.725 27.3617C15.725 28.46 14.8783 29.5967 13.4617 29.5967C12.4183 29.5967 11.3317 29.0384 10.57 28.5384L10.1033 30.0767ZM19.4467 18.7917H19.4633H19.4467ZM10.675 11.075C10.5457 11.0752 10.4181 11.0453 10.3023 10.9876C10.1866 10.93 10.0858 10.8462 10.008 10.7429C9.93026 10.6395 9.8776 10.5195 9.85423 10.3923C9.83085 10.2651 9.83739 10.1342 9.87335 10.01C10.1917 8.90835 13.1383 -0.736647 18.05 0.0433525C19.2467 0.228352 20.2067 0.850019 20.8267 1.84002C21.9233 3.59502 21.7317 6.18335 21.3533 7.40335C21.2831 7.6082 21.1358 7.77765 20.9428 7.87581C20.7497 7.97396 20.5261 7.99311 20.3191 7.92919C20.1122 7.86527 19.9383 7.72331 19.8343 7.53338C19.7302 7.34345 19.7042 7.12048 19.7617 6.91168C19.9967 6.15002 20.2367 4.04002 19.4133 2.72335C19.0483 2.13835 18.52 1.80169 17.795 1.69002C14.8833 1.24169 12.1783 8.04835 11.475 10.4717C11.4251 10.6454 11.3201 10.7982 11.1758 10.907C11.0315 11.0158 10.8558 11.0748 10.675 11.075Z" fill="#F32C97"/>
<path d="M15.5416 9.55326C15.4243 9.5533 15.3082 9.52856 15.2011 9.48066C15.094 9.43276 14.9982 9.36278 14.92 9.2753C14.8419 9.18782 14.783 9.08482 14.7474 8.97303C14.7117 8.86124 14.7001 8.74319 14.7133 8.6266C15.0083 6.04993 16.7683 1.17993 21.3099 1.17993C23.9749 1.17993 25.8333 3.6016 25.8333 5.77493C25.8333 5.99595 25.7455 6.20791 25.5892 6.36419C25.4329 6.52047 25.2209 6.60827 24.9999 6.60827C24.7789 6.60827 24.5669 6.52047 24.4107 6.36419C24.2544 6.20791 24.1666 5.99595 24.1666 5.77493C24.1666 4.57827 23.1499 2.8466 21.3099 2.8466C17.1016 2.8466 16.3749 8.7566 16.3683 8.81493C16.345 9.01795 16.2479 9.20533 16.0955 9.34146C15.9431 9.47758 15.7459 9.55296 15.5416 9.55326Z" fill="#F32C97"/>
</g>
<defs>
<clipPath id="clip0_53_1030">
<rect width="40" height="40" fill="white"/>
</clipPath>
</defs>
</svg>
