<svg width="24" height="22" viewBox="0 0 24 22" fill="none" xmlns="http://www.w3.org/2000/svg">
<path d="M17.8833 5.0931C16.8375 2.31735 14.589 0.559326 11.1926 0.559326C6.8711 0.559326 3.84748 3.7682 3.58763 7.9547C1.5041 8.62108 0 10.7466 0 13.1541C0 16.1012 2.31675 18.5908 5.05835 18.5908H7.2251C7.6391 18.5908 7.9751 18.2548 7.9751 17.8408C7.9751 17.4265 7.6391 17.0908 7.2251 17.0908H5.05835C3.12935 17.0908 1.47635 15.2882 1.47635 13.1541C1.47635 11.2682 2.7986 9.56683 4.45723 9.28183L5.13785 9.16445L5.07748 8.47708L5.07185 8.46845C5.07185 4.8152 7.47598 2.0597 11.1926 2.0597C14.1716 2.0597 15.8453 3.52745 16.6193 6.03095L16.7797 6.54733L17.3201 6.55895C20.1063 6.61745 22.5491 8.87798 22.5491 11.6864C22.5491 14.2424 20.8552 17.0909 18.2906 17.0909H16.5769C16.1629 17.0909 15.8269 17.4269 15.8269 17.8409C15.8269 18.2552 16.1629 18.5909 16.5769 18.5909L18.285 18.5886C22.035 18.4896 23.9884 14.9073 23.9884 11.6864C23.9884 8.2244 21.2752 5.45802 17.8834 5.09315L17.8833 5.0931ZM12.5621 11.069C12.558 11.0645 12.5565 11.0608 12.5538 11.057L12.3641 10.8587C12.2602 10.7488 12.1218 10.6944 11.9835 10.6952C11.8451 10.694 11.7074 10.7488 11.6017 10.8586L11.412 11.057C11.4082 11.0608 11.4074 11.0653 11.4041 11.069L8.69695 14.063C8.48733 14.282 8.48733 14.6364 8.69695 14.8562L8.88595 14.9844C9.0956 15.2034 9.43533 15.1325 9.64458 14.9135L11.241 13.1338V20.6908C11.241 21.1048 11.577 21.4408 11.991 21.4408C12.405 21.4408 12.741 21.1048 12.741 20.6908V13.1409L14.3902 14.9604C14.5999 15.1794 14.9389 15.2503 15.1481 15.0313L15.3371 14.903C15.5468 14.6833 15.5468 14.3289 15.3371 14.1099L12.5621 11.069Z" fill="#FFA621"/>
</svg>
