<svg width="22" height="25" viewBox="0 0 22 25" fill="none" xmlns="http://www.w3.org/2000/svg">
<path d="M15.577 14.3792C14.2316 14.3792 13.5848 15.1292 11.377 15.1292C9.16914 15.1292 8.52695 14.3792 7.17695 14.3792C3.69883 14.3792 0.876953 17.201 0.876953 20.6791V21.8792C0.876953 23.1213 1.88477 24.1292 3.12695 24.1292H19.627C20.8691 24.1292 21.877 23.1213 21.877 21.8792V20.6791C21.877 17.201 19.0551 14.3792 15.577 14.3792ZM19.627 21.8792H3.12695V20.6791C3.12695 18.4479 4.9457 16.6292 7.17695 16.6292C7.86133 16.6292 8.97227 17.3792 11.377 17.3792C13.8004 17.3792 14.8879 16.6292 15.577 16.6292C17.8082 16.6292 19.627 18.4479 19.627 20.6791V21.8792ZM11.377 13.6292C15.1035 13.6292 18.127 10.6057 18.127 6.87915C18.127 3.15259 15.1035 0.12915 11.377 0.12915C7.65039 0.12915 4.62695 3.15259 4.62695 6.87915C4.62695 10.6057 7.65039 13.6292 11.377 13.6292ZM11.377 2.37915C13.8566 2.37915 15.877 4.39946 15.877 6.87915C15.877 9.35884 13.8566 11.3792 11.377 11.3792C8.89727 11.3792 6.87695 9.35884 6.87695 6.87915C6.87695 4.39946 8.89727 2.37915 11.377 2.37915Z" fill="white"/>
</svg>
